<svg xmlns="http://www.w3.org/2000/svg" viewBox="0 0 2160 400">
  <!-- Sky -->
  <rect width="2160" height="400" fill="#87CEEB"/>
  
  <!-- Sun -->
  <circle cx="1960" cy="80" r="60" fill="#FFD700"/>
  
  <!-- Ocean -->
  <path d="M0 200 Q540 180 1080 200 Q1620 220 2160 200 L2160 400 L0 400 Z" fill="#4169E1"/>
  
  <!-- Beach -->
  <path d="M0 250 Q540 230 1080 250 Q1620 270 2160 250 L2160 400 L0 400 Z" fill="#F4A460"/>
  
  <!-- Palm Tree 1 -->
  <line x1="300" y1="250" x2="300" y2="150" stroke="#8B4513" stroke-width="20"/>
  <path d="M250 150 Q300 50 350 150 Q330 140 300 150 Q270 140 250 150Z" fill="#228B22"/>
  
  <!-- Palm Tree 2 -->
  <line x1="1800" y1="270" x2="1800" y2="170" stroke="#8B4513" stroke-width="20"/>
  <path d="M1750 170 Q1800 70 1850 170 Q1830 160 1800 170 Q1770 160 1750 170Z" fill="#228B22"/>
</svg>
