<svg xmlns="http://www.w3.org/2000/svg" viewBox="0 0 2160 100">
  <!-- Background -->
  <rect width="2160" height="100" fill="#1a1a2e"/>
  
  <!-- Stars -->
  <circle cx="100" cy="30" r="1" fill="#ffffff"/>
  <circle cx="500" cy="70" r="1" fill="#ffffff"/>
  <circle cx="900" cy="20" r="1" fill="#ffffff"/>
  <circle cx="1300" cy="50" r="1" fill="#ffffff"/>
  <circle cx="1700" cy="40" r="1" fill="#ffffff"/>
  <circle cx="2000" cy="60" r="1" fill="#ffffff"/>
  
  <!-- Moon -->
  <path d="M75 30 A 20 20 0 0 1 75 70 A 20 20 0 0 0 75 30" fill="#f0f0f0"/>
  
  <!-- Waves -->
  <path d="M0 70 Q540 50 1080 70 Q1620 90 2160 70 L2160 100 L0 100 Z" fill="#16213e"/>
  <path d="M0 80 Q540 60 1080 80 Q1620 100 2160 80 L2160 100 L0 100 Z" fill="#0f3460" opacity="0.6"/>
  
  <!-- Palm Tree Silhouette -->
  <path d="M2100 100 L2100 40 Q2085 35 2070 40 Q2100 0 2130 40 Q2115 35 2100 40" fill="#0f3460"/>
</svg>
